<svg width="2310" height="330" xmlns="http://www.w3.org/2000/svg" xmlns:xlink="http://www.w3.org/1999/xlink" xml:space="preserve" overflow="hidden"><defs><clipPath id="clip0"><rect x="939" y="500" width="2310" height="330"/></clipPath></defs><g clip-path="url(#clip0)" transform="translate(-939 -500)"><path d="M939 500 1269 500 1269 830 939 830Z" fill-rule="evenodd"/><path d="M1269 500 1599 500 1599 830 1269 830Z" fill-rule="evenodd"/><path d="M1599 500 1929 500 1929 830 1599 830Z" fill="#FFFFFF" fill-rule="evenodd"/><path d="M1929 500 2259 500 2259 830 1929 830Z" fill="#FFFFFF" fill-rule="evenodd"/><path d="M2259 500 2589 500 2589 830 2259 830Z" fill-rule="evenodd"/><path d="M2589 500 2919 500 2919 830 2589 830Z" fill="#FFFFFF" fill-rule="evenodd"/><path d="M2919 500 3249 500 3249 830 2919 830Z" fill="#FFFFFF" fill-rule="evenodd"/></g></svg>